<svg xmlns="http://www.w3.org/2000/svg" xmlns:xlink="http://www.w3.org/1999/xlink" contentStyleType="text/css" height="975px" preserveAspectRatio="none" style="width:2467px;height:975px;background:#FFFFFF;" version="1.1" viewBox="0 0 2467 975" width="2467px" zoomAndPan="magnify"><defs/><g><text fill="#000000" font-family="sans-serif" font-size="14" font-weight="bold" lengthAdjust="spacing" textLength="151.5914" x="1150.7043" y="24.9659">GestureCap Structure</text><!--cluster audio--><g id="cluster_audio"><path d="M8.5,439.6199 L48.9519,439.6199 A3.75,3.75 0 0 1 51.4519,442.1199 L58.4519,464.6878 L359.5,464.6878 A2.5,2.5 0 0 1 362,467.1878 L362,917.9499 A2.5,2.5 0 0 1 359.5,920.4499 L8.5,920.4499 A2.5,2.5 0 0 1 6,917.9499 L6,442.1199 A2.5,2.5 0 0 1 8.5,439.6199 " fill="none" style="stroke:#000000;stroke-width:1.5;"/><line style="stroke:#000000;stroke-width:1.5;" x1="6" x2="58.4519" y1="464.6878" y2="464.6878"/><text fill="#000000" font-family="sans-serif" font-size="14" font-weight="bold" lengthAdjust="spacing" textLength="39.4519" x="10" y="456.5858">audio</text></g><!--cluster display--><g id="cluster_display"><path d="M1688.5,46.6699 L1739.1438,46.6699 A3.75,3.75 0 0 1 1741.6438,49.1699 L1748.6438,71.7378 L1925.5,71.7378 A2.5,2.5 0 0 1 1928,74.2378 L1928,394.0499 A2.5,2.5 0 0 1 1925.5,396.5499 L1688.5,396.5499 A2.5,2.5 0 0 1 1686,394.0499 L1686,49.1699 A2.5,2.5 0 0 1 1688.5,46.6699 " fill="none" style="stroke:#000000;stroke-width:1.5;"/><line style="stroke:#000000;stroke-width:1.5;" x1="1686" x2="1748.6438" y1="71.7378" y2="71.7378"/><text fill="#000000" font-family="sans-serif" font-size="14" font-weight="bold" lengthAdjust="spacing" textLength="49.6438" x="1690" y="63.6358">display</text></g><!--cluster feature_extractor--><g id="cluster_feature_extractor"><path d="M388.5,496.8299 L512.8535,496.8299 A3.75,3.75 0 0 1 515.3535,499.3299 L522.3535,521.8978 L1142.5,521.8978 A2.5,2.5 0 0 1 1145,524.3978 L1145,937.0199 A2.5,2.5 0 0 1 1142.5,939.5199 L388.5,939.5199 A2.5,2.5 0 0 1 386,937.0199 L386,499.3299 A2.5,2.5 0 0 1 388.5,496.8299 " fill="none" style="stroke:#000000;stroke-width:1.5;"/><line style="stroke:#000000;stroke-width:1.5;" x1="386" x2="522.3535" y1="521.8978" y2="521.8978"/><text fill="#000000" font-family="sans-serif" font-size="14" font-weight="bold" lengthAdjust="spacing" textLength="123.3535" x="390" y="513.7958">feature_extractor</text></g><!--cluster feature_mapper--><g id="cluster_feature_mapper"><path d="M1171.5,496.8299 L1284.8636,496.8299 A3.75,3.75 0 0 1 1287.3636,499.3299 L1294.3636,521.8978 L2010.5,521.8978 A2.5,2.5 0 0 1 2013,524.3978 L2013,927.4799 A2.5,2.5 0 0 1 2010.5,929.9799 L1171.5,929.9799 A2.5,2.5 0 0 1 1169,927.4799 L1169,499.3299 A2.5,2.5 0 0 1 1171.5,496.8299 " fill="none" style="stroke:#000000;stroke-width:1.5;"/><line style="stroke:#000000;stroke-width:1.5;" x1="1169" x2="1294.3636" y1="521.8978" y2="521.8978"/><text fill="#000000" font-family="sans-serif" font-size="14" font-weight="bold" lengthAdjust="spacing" textLength="112.3636" x="1173" y="513.7958">feature_mapper</text></g><!--cluster utils--><g id="cluster_utils"><path d="M964.5,113.4099 L996.2719,113.4099 A3.75,3.75 0 0 1 998.7719,115.9099 L1005.7719,138.4778 L1217.5,138.4778 A2.5,2.5 0 0 1 1220,140.9778 L1220,327.3199 A2.5,2.5 0 0 1 1217.5,329.8199 L964.5,329.8199 A2.5,2.5 0 0 1 962,327.3199 L962,115.9099 A2.5,2.5 0 0 1 964.5,113.4099 " fill="none" style="stroke:#000000;stroke-width:1.5;"/><line style="stroke:#000000;stroke-width:1.5;" x1="962" x2="1005.7719" y1="138.4778" y2="138.4778"/><text fill="#000000" font-family="sans-serif" font-size="14" font-weight="bold" lengthAdjust="spacing" textLength="30.7719" x="966" y="130.3758">utils</text></g><!--cluster video--><g id="cluster_video"><path d="M2039.5,420.5499 L2078.5379,420.5499 A3.75,3.75 0 0 1 2081.0379,423.0499 L2088.0379,445.6178 L2457.5,445.6178 A2.5,2.5 0 0 1 2460,448.1178 L2460,965.6199 A2.5,2.5 0 0 1 2457.5,968.1199 L2039.5,968.1199 A2.5,2.5 0 0 1 2037,965.6199 L2037,423.0499 A2.5,2.5 0 0 1 2039.5,420.5499 " fill="none" style="stroke:#000000;stroke-width:1.5;"/><line style="stroke:#000000;stroke-width:1.5;" x1="2037" x2="2088.0379" y1="445.6178" y2="445.6178"/><text fill="#000000" font-family="sans-serif" font-size="14" font-weight="bold" lengthAdjust="spacing" textLength="38.0379" x="2041" y="437.5158">video</text></g><!--cluster main--><g id="cluster_main"><path d="M2175.5,161.0799 L2212.1719,161.0799 A3.75,3.75 0 0 1 2214.6719,163.5799 L2221.6719,186.1478 L2346.5,186.1478 A2.5,2.5 0 0 1 2349,188.6478 L2349,279.6499 A2.5,2.5 0 0 1 2346.5,282.1499 L2175.5,282.1499 A2.5,2.5 0 0 1 2173,279.6499 L2173,163.5799 A2.5,2.5 0 0 1 2175.5,161.0799 " fill="none" style="stroke:#000000;stroke-width:1.5;"/><line style="stroke:#000000;stroke-width:1.5;" x1="2173" x2="2221.6719" y1="186.1478" y2="186.1478"/><text fill="#000000" font-family="sans-serif" font-size="14" font-weight="bold" lengthAdjust="spacing" textLength="35.6719" x="2177" y="178.0458">main</text></g><!--class AudioGenerator--><g id="elem_AudioGenerator"><rect codeLine="10" fill="#F1F1F1" height="194.8874" id="AudioGenerator" rx="2.5" ry="2.5" style="stroke:#181818;stroke-width:0.5;" width="137.8676" x="196.07" y="477.6199"/><ellipse cx="211.07" cy="500.3259" fill="#FFCC00" rx="11" ry="11" style="stroke:#181818;stroke-width:1.0;"/><path d="M206.2419,506.0759 L209.5856,493.8884 L212.7263,493.8884 L216.1013,506.0759 L213.6325,506.0759 L212.8981,503.0603 L209.3825,503.0603 L208.6325,506.0759 L206.2419,506.0759 Z M210.6481,498.029 L209.8981,501.029 L212.4138,501.029 L211.695,498.029 Q211.5544,497.4509 211.4294,496.904 Q211.3044,496.3415 211.1638,495.7634 Q211.0544,496.3415 210.9138,496.904 Q210.7731,497.4509 210.6481,498.029 Z " fill="#000000"/><text fill="#000000" font-family="sans-serif" font-size="12" font-style="italic" lengthAdjust="spacing" textLength="55.3924" x="250.3076" y="495.448">&#171;abstract&#187;</text><text fill="#000000" font-family="sans-serif" font-size="14" lengthAdjust="spacing" textLength="105.8676" x="225.07" y="513.9299">AudioGenerator</text><line style="stroke:#181818;stroke-width:0.5;" x1="197.07" x2="332.9376" y1="523.0319" y2="523.0319"/><text fill="#000000" font-family="sans-serif" font-size="14" lengthAdjust="spacing" textLength="97.9156" x="202.07" y="541.9979">-_data_to_send</text><text fill="#000000" font-family="sans-serif" font-size="14" lengthAdjust="spacing" textLength="72.5897" x="202.07" y="561.0658">-_data_lock</text><text fill="#000000" font-family="sans-serif" font-size="14" lengthAdjust="spacing" textLength="95.1996" x="202.07" y="580.1337">+data_to_send</text><line style="stroke:#181818;stroke-width:0.5;" x1="197.07" x2="332.9376" y1="588.2357" y2="588.2357"/><text fill="#000000" font-family="sans-serif" font-size="14" font-style="italic" lengthAdjust="spacing" textLength="65.3378" x="202.07" y="607.2016">+cleanup()</text><text fill="#000000" font-family="sans-serif" font-size="14" font-style="italic" lengthAdjust="spacing" textLength="98.8116" x="202.07" y="626.2695">+output_audio()</text><text fill="#000000" font-family="sans-serif" font-size="14" lengthAdjust="spacing" textLength="39.4938" x="202.07" y="645.3374">+run()</text><text fill="#000000" font-family="sans-serif" font-size="14" lengthAdjust="spacing" textLength="45.2478" x="202.07" y="664.4054">+stop()</text></g><!--class OSCGenerator--><g id="elem_OSCGenerator"><rect codeLine="20" fill="#F1F1F1" height="105.2038" id="OSCGenerator" rx="2.5" ry="2.5" style="stroke:#181818;stroke-width:0.5;" width="127.0456" x="22.48" y="799.2499"/><ellipse cx="37.48" cy="815.2499" fill="#ADD1B2" rx="11" ry="11" style="stroke:#181818;stroke-width:1.0;"/><path d="M36.9488,822.1718 Q35.1988,822.1718 34.0581,821.4374 Q32.9331,820.6874 32.3706,819.3436 Q31.8237,817.9843 31.8237,816.1874 Q31.8237,814.1561 32.48,812.703 Q33.1363,811.2499 34.4175,810.4686 Q35.6988,809.6874 37.5738,809.6874 Q38.4644,809.6874 39.1363,809.8749 Q39.8081,810.0468 40.4956,810.3905 L39.6831,812.4061 Q39.0581,812.0936 38.5113,811.9686 Q37.98,811.8436 37.4956,811.8436 Q36.3238,811.8436 35.6206,812.3749 Q34.9175,812.9061 34.6206,813.8593 Q34.3238,814.8124 34.3238,816.078 Q34.3238,818.0936 35.0425,819.0624 Q35.7613,820.0155 37.355,820.0155 Q37.9488,820.0155 38.5738,819.8593 Q39.1988,819.703 40.0269,819.328 L40.0269,821.5468 Q39.2925,821.8593 38.4956,822.0155 Q37.7144,822.1718 36.9488,822.1718 Z " fill="#000000"/><text fill="#000000" font-family="sans-serif" font-size="14" lengthAdjust="spacing" textLength="95.0456" x="51.48" y="820.6819">OSCGenerator</text><line style="stroke:#181818;stroke-width:0.5;" x1="23.48" x2="148.5256" y1="831.2499" y2="831.2499"/><text fill="#000000" font-family="sans-serif" font-size="14" lengthAdjust="spacing" textLength="40.0538" x="28.48" y="850.2158">-client</text><line style="stroke:#181818;stroke-width:0.5;" x1="23.48" x2="148.5256" y1="858.3178" y2="858.3178"/><text fill="#000000" font-family="sans-serif" font-size="14" lengthAdjust="spacing" textLength="104.3136" x="28.48" y="877.2838">+output_audio()</text><text fill="#000000" font-family="sans-serif" font-size="14" lengthAdjust="spacing" textLength="68.4037" x="28.48" y="896.3517">+cleanup()</text></g><!--class SinewaveGenerator--><g id="elem_SinewaveGenerator"><rect codeLine="26" fill="#F1F1F1" height="105.2038" id="SinewaveGenerator" rx="2.5" ry="2.5" style="stroke:#181818;stroke-width:0.5;" width="161.2895" x="184.36" y="799.2499"/><ellipse cx="199.36" cy="815.2499" fill="#ADD1B2" rx="11" ry="11" style="stroke:#181818;stroke-width:1.0;"/><path d="M198.8288,822.1718 Q197.0788,822.1718 195.9381,821.4374 Q194.8131,820.6874 194.2506,819.3436 Q193.7038,817.9843 193.7038,816.1874 Q193.7038,814.1561 194.36,812.703 Q195.0163,811.2499 196.2975,810.4686 Q197.5788,809.6874 199.4538,809.6874 Q200.3444,809.6874 201.0163,809.8749 Q201.6881,810.0468 202.3756,810.3905 L201.5631,812.4061 Q200.9381,812.0936 200.3913,811.9686 Q199.86,811.8436 199.3756,811.8436 Q198.2038,811.8436 197.5006,812.3749 Q196.7975,812.9061 196.5006,813.8593 Q196.2038,814.8124 196.2038,816.078 Q196.2038,818.0936 196.9225,819.0624 Q197.6413,820.0155 199.235,820.0155 Q199.8288,820.0155 200.4538,819.8593 Q201.0788,819.703 201.9069,819.328 L201.9069,821.5468 Q201.1725,821.8593 200.3756,822.0155 Q199.5944,822.1718 198.8288,822.1718 Z " fill="#000000"/><text fill="#000000" font-family="sans-serif" font-size="14" lengthAdjust="spacing" textLength="129.2895" x="213.36" y="820.6819">SinewaveGenerator</text><line style="stroke:#181818;stroke-width:0.5;" x1="185.36" x2="344.6495" y1="831.2499" y2="831.2499"/><line style="stroke:#181818;stroke-width:0.5;" x1="185.36" x2="344.6495" y1="839.2499" y2="839.2499"/><text fill="#000000" font-family="sans-serif" font-size="14" lengthAdjust="spacing" textLength="104.3136" x="190.36" y="858.2158">+output_audio()</text><text fill="#000000" font-family="sans-serif" font-size="14" lengthAdjust="spacing" textLength="68.4037" x="190.36" y="877.2838">+cleanup()</text><text fill="#000000" font-family="sans-serif" font-size="14" lengthAdjust="spacing" textLength="142.9954" x="190.36" y="896.3517">+generate_sinewave()</text></g><!--class Display--><g id="elem_Display"><rect codeLine="37" fill="#F1F1F1" height="295.8829" id="Display" rx="2.5" ry="2.5" style="stroke:#181818;stroke-width:0.5;" width="210.9252" x="1701.54" y="84.6699"/><ellipse cx="1778.8757" cy="100.6699" fill="#ADD1B2" rx="11" ry="11" style="stroke:#181818;stroke-width:1.0;"/><path d="M1778.3445,107.5918 Q1776.5945,107.5918 1775.4538,106.8574 Q1774.3288,106.1074 1773.7663,104.7636 Q1773.2195,103.4043 1773.2195,101.6074 Q1773.2195,99.5761 1773.8757,98.123 Q1774.532,96.6699 1775.8132,95.8886 Q1777.0945,95.1074 1778.9695,95.1074 Q1779.8601,95.1074 1780.532,95.2949 Q1781.2038,95.4668 1781.8913,95.8105 L1781.0788,97.8261 Q1780.4538,97.5136 1779.907,97.3886 Q1779.3757,97.2636 1778.8913,97.2636 Q1777.7195,97.2636 1777.0163,97.7949 Q1776.3132,98.3261 1776.0163,99.2793 Q1775.7195,100.2324 1775.7195,101.498 Q1775.7195,103.5136 1776.4382,104.4824 Q1777.157,105.4355 1778.7507,105.4355 Q1779.3445,105.4355 1779.9695,105.2793 Q1780.5945,105.123 1781.4226,104.748 L1781.4226,106.9668 Q1780.6882,107.2793 1779.8913,107.4355 Q1779.1101,107.5918 1778.3445,107.5918 Z " fill="#000000"/><text fill="#000000" font-family="sans-serif" font-size="14" lengthAdjust="spacing" textLength="47.7538" x="1799.3757" y="106.1019">Display</text><line style="stroke:#181818;stroke-width:0.5;" x1="1702.54" x2="1911.4652" y1="116.6699" y2="116.6699"/><text fill="#000000" font-family="sans-serif" font-size="14" lengthAdjust="spacing" textLength="50.1618" x="1707.54" y="135.6358">-_frame</text><text fill="#000000" font-family="sans-serif" font-size="14" lengthAdjust="spacing" textLength="86.8277" x="1707.54" y="154.7038">-components</text><text fill="#000000" font-family="sans-serif" font-size="14" lengthAdjust="spacing" textLength="76.1737" x="1707.54" y="173.7717">-stop_event</text><text fill="#000000" font-family="sans-serif" font-size="14" lengthAdjust="spacing" textLength="30.7859" x="1707.54" y="192.8396">-lock</text><text fill="#000000" font-family="sans-serif" font-size="14" lengthAdjust="spacing" textLength="41.4398" x="1707.54" y="211.9075">-width</text><text fill="#000000" font-family="sans-serif" font-size="14" lengthAdjust="spacing" textLength="46.9838" x="1707.54" y="230.9754">-height</text><text fill="#000000" font-family="sans-serif" font-size="14" lengthAdjust="spacing" textLength="87.7097" x="1707.54" y="250.0433">-frame_count</text><text fill="#000000" font-family="sans-serif" font-size="14" lengthAdjust="spacing" textLength="24.6399" x="1707.54" y="269.1113">-fps</text><text fill="#000000" font-family="sans-serif" font-size="14" lengthAdjust="spacing" textLength="106.9736" x="1707.54" y="288.1792">-last_fps_update</text><text fill="#000000" font-family="sans-serif" font-size="14" lengthAdjust="spacing" textLength="47.4458" x="1707.54" y="307.2471">+frame</text><line style="stroke:#181818;stroke-width:0.5;" x1="1702.54" x2="1911.4652" y1="315.3491" y2="315.3491"/><text fill="#000000" font-family="sans-serif" font-size="14" lengthAdjust="spacing" textLength="198.9252" x="1707.54" y="334.315">+add_component(component)</text><text fill="#000000" font-family="sans-serif" font-size="14" lengthAdjust="spacing" textLength="39.4938" x="1707.54" y="353.3829">+run()</text><text fill="#000000" font-family="sans-serif" font-size="14" lengthAdjust="spacing" textLength="45.2478" x="1707.54" y="372.4508">+stop()</text></g><!--class FeatureExtractor--><g id="elem_FeatureExtractor"><rect codeLine="55" fill="#F1F1F1" height="80.4799" id="FeatureExtractor" rx="2.5" ry="2.5" style="stroke:#181818;stroke-width:0.5;" width="142.3056" x="909.85" y="534.8299"/><ellipse cx="924.85" cy="557.5359" fill="#FFCC00" rx="11" ry="11" style="stroke:#181818;stroke-width:1.0;"/><path d="M920.0219,563.2859 L923.3656,551.0984 L926.5063,551.0984 L929.8813,563.2859 L927.4125,563.2859 L926.6781,560.2703 L923.1625,560.2703 L922.4125,563.2859 L920.0219,563.2859 Z M924.4281,555.239 L923.6781,558.239 L926.1938,558.239 L925.475,555.239 Q925.3344,554.6609 925.2094,554.114 Q925.0844,553.5515 924.9438,552.9734 Q924.8344,553.5515 924.6938,554.114 Q924.5531,554.6609 924.4281,555.239 Z " fill="#000000"/><text fill="#000000" font-family="sans-serif" font-size="12" font-style="italic" lengthAdjust="spacing" textLength="55.3924" x="966.3066" y="552.658">&#171;abstract&#187;</text><text fill="#000000" font-family="sans-serif" font-size="14" lengthAdjust="spacing" textLength="110.3056" x="938.85" y="571.1399">FeatureExtractor</text><line style="stroke:#181818;stroke-width:0.5;" x1="910.85" x2="1051.1556" y1="580.2419" y2="580.2419"/><line style="stroke:#181818;stroke-width:0.5;" x1="910.85" x2="1051.1556" y1="588.2419" y2="588.2419"/><text fill="#000000" font-family="sans-serif" font-size="14" font-style="italic" lengthAdjust="spacing" textLength="100.3236" x="915.85" y="607.2079">+process(frame)</text></g><!--class FrameDiffCalculator--><g id="elem_FrameDiffCalculator"><rect codeLine="59" fill="#F1F1F1" height="105.2038" id="FrameDiffCalculator" rx="2.5" ry="2.5" style="stroke:#181818;stroke-width:0.5;" width="396.8025" x="401.6" y="799.2499"/><ellipse cx="529.8465" cy="815.2499" fill="#ADD1B2" rx="11" ry="11" style="stroke:#181818;stroke-width:1.0;"/><path d="M529.3152,822.1718 Q527.5652,822.1718 526.4246,821.4374 Q525.2996,820.6874 524.7371,819.3436 Q524.1902,817.9843 524.1902,816.1874 Q524.1902,814.1561 524.8465,812.703 Q525.5027,811.2499 526.784,810.4686 Q528.0652,809.6874 529.9402,809.6874 Q530.8309,809.6874 531.5027,809.8749 Q532.1746,810.0468 532.8621,810.3905 L532.0496,812.4061 Q531.4246,812.0936 530.8777,811.9686 Q530.3465,811.8436 529.8621,811.8436 Q528.6902,811.8436 527.9871,812.3749 Q527.284,812.9061 526.9871,813.8593 Q526.6902,814.8124 526.6902,816.078 Q526.6902,818.0936 527.409,819.0624 Q528.1277,820.0155 529.7215,820.0155 Q530.3152,820.0155 530.9402,819.8593 Q531.5652,819.703 532.3934,819.328 L532.3934,821.5468 Q531.659,821.8593 530.8621,822.0155 Q530.0809,822.1718 529.3152,822.1718 Z " fill="#000000"/><text fill="#000000" font-family="sans-serif" font-size="14" lengthAdjust="spacing" textLength="131.8095" x="550.3465" y="820.6819">FrameDiffCalculator</text><line style="stroke:#181818;stroke-width:0.5;" x1="402.6" x2="797.4025" y1="831.2499" y2="831.2499"/><text fill="#000000" font-family="sans-serif" font-size="14" lengthAdjust="spacing" textLength="107.0016" x="407.6" y="850.2158">-previous_frame</text><line style="stroke:#181818;stroke-width:0.5;" x1="402.6" x2="797.4025" y1="858.3178" y2="858.3178"/><text fill="#000000" font-family="sans-serif" font-size="14" lengthAdjust="spacing" textLength="161.4894" x="407.6" y="877.2838">+process(current_frame)</text><text fill="#000000" font-family="sans-serif" font-size="14" lengthAdjust="spacing" textLength="384.8025" x="407.6" y="896.3517">-_compute_abs_frame_diff(previous_frame, current_frame)</text></g><!--class HandLandmarker--><g id="elem_HandLandmarker"><rect codeLine="65" fill="#F1F1F1" height="143.3396" id="HandLandmarker" rx="2.5" ry="2.5" style="stroke:#181818;stroke-width:0.5;" width="295.5829" x="833.21" y="780.1799"/><ellipse cx="918.8407" cy="796.1799" fill="#ADD1B2" rx="11" ry="11" style="stroke:#181818;stroke-width:1.0;"/><path d="M918.3094,803.1018 Q916.5594,803.1018 915.4188,802.3674 Q914.2938,801.6174 913.7313,800.2736 Q913.1844,798.9143 913.1844,797.1174 Q913.1844,795.0861 913.8407,793.633 Q914.4969,792.1799 915.7782,791.3986 Q917.0594,790.6174 918.9344,790.6174 Q919.8251,790.6174 920.4969,790.8049 Q921.1688,790.9768 921.8563,791.3205 L921.0438,793.3361 Q920.4188,793.0236 919.8719,792.8986 Q919.3407,792.7736 918.8563,792.7736 Q917.6844,792.7736 916.9813,793.3049 Q916.2782,793.8361 915.9813,794.7893 Q915.6844,795.7424 915.6844,797.008 Q915.6844,799.0236 916.4032,799.9924 Q917.1219,800.9455 918.7157,800.9455 Q919.3094,800.9455 919.9344,800.7893 Q920.5594,800.633 921.3876,800.258 L921.3876,802.4768 Q920.6532,802.7893 919.8563,802.9455 Q919.0751,803.1018 918.3094,803.1018 Z " fill="#000000"/><text fill="#000000" font-family="sans-serif" font-size="14" lengthAdjust="spacing" textLength="115.8216" x="939.3407" y="801.6119">HandLandmarker</text><line style="stroke:#181818;stroke-width:0.5;" x1="834.21" x2="1127.7929" y1="812.1799" y2="812.1799"/><text fill="#000000" font-family="sans-serif" font-size="14" lengthAdjust="spacing" textLength="72.8977" x="839.21" y="831.1458">-mp_hands</text><text fill="#000000" font-family="sans-serif" font-size="14" lengthAdjust="spacing" textLength="86.5477" x="839.21" y="850.2138">-mp_drawing</text><text fill="#000000" font-family="sans-serif" font-size="14" lengthAdjust="spacing" textLength="44.9818" x="839.21" y="869.2817">-hands</text><line style="stroke:#181818;stroke-width:0.5;" x1="834.21" x2="1127.7929" y1="877.3836" y2="877.3836"/><text fill="#000000" font-family="sans-serif" font-size="14" lengthAdjust="spacing" textLength="108.3596" x="839.21" y="896.3496">+process(image)</text><text fill="#000000" font-family="sans-serif" font-size="14" lengthAdjust="spacing" textLength="283.5829" x="839.21" y="915.4175">+draw_landmarks(image, hand_landmarks)</text></g><!--class Mapper--><g id="elem_Mapper"><rect codeLine="78" fill="#F1F1F1" height="80.4799" id="Mapper" rx="2.5" ry="2.5" style="stroke:#181818;stroke-width:0.5;" width="182.1413" x="1394.93" y="534.8299"/><ellipse cx="1456.0258" cy="557.5359" fill="#FFCC00" rx="11" ry="11" style="stroke:#181818;stroke-width:1.0;"/><path d="M1451.1976,563.2859 L1454.5414,551.0984 L1457.682,551.0984 L1461.057,563.2859 L1458.5883,563.2859 L1457.8539,560.2703 L1454.3383,560.2703 L1453.5883,563.2859 L1451.1976,563.2859 Z M1455.6039,555.239 L1454.8539,558.239 L1457.3695,558.239 L1456.6508,555.239 Q1456.5101,554.6609 1456.3851,554.114 Q1456.2601,553.5515 1456.1195,552.9734 Q1456.0101,553.5515 1455.8695,554.114 Q1455.7289,554.6609 1455.6039,555.239 Z " fill="#000000"/><text fill="#000000" font-family="sans-serif" font-size="12" font-style="italic" lengthAdjust="spacing" textLength="55.3924" x="1474.5545" y="552.658">&#171;abstract&#187;</text><text fill="#000000" font-family="sans-serif" font-size="14" lengthAdjust="spacing" textLength="51.4498" x="1476.5258" y="571.1399">Mapper</text><line style="stroke:#181818;stroke-width:0.5;" x1="1395.93" x2="1576.0713" y1="580.2419" y2="580.2419"/><line style="stroke:#181818;stroke-width:0.5;" x1="1395.93" x2="1576.0713" y1="588.2419" y2="588.2419"/><text fill="#000000" font-family="sans-serif" font-size="14" font-style="italic" lengthAdjust="spacing" textLength="170.1413" x="1400.93" y="607.2079">+process_features(features)</text></g><!--class BarycenterMapper--><g id="elem_BarycenterMapper"><rect codeLine="82" fill="#F1F1F1" height="105.2038" id="BarycenterMapper" rx="2.5" ry="2.5" style="stroke:#181818;stroke-width:0.5;" width="283.221" x="1185.39" y="799.2499"/><ellipse cx="1261.0877" cy="815.2499" fill="#ADD1B2" rx="11" ry="11" style="stroke:#181818;stroke-width:1.0;"/><path d="M1260.5565,822.1718 Q1258.8065,822.1718 1257.6658,821.4374 Q1256.5408,820.6874 1255.9783,819.3436 Q1255.4315,817.9843 1255.4315,816.1874 Q1255.4315,814.1561 1256.0877,812.703 Q1256.744,811.2499 1258.0252,810.4686 Q1259.3065,809.6874 1261.1815,809.6874 Q1262.0721,809.6874 1262.744,809.8749 Q1263.4158,810.0468 1264.1033,810.3905 L1263.2908,812.4061 Q1262.6658,812.0936 1262.119,811.9686 Q1261.5877,811.8436 1261.1033,811.8436 Q1259.9315,811.8436 1259.2283,812.3749 Q1258.5252,812.9061 1258.2283,813.8593 Q1257.9315,814.8124 1257.9315,816.078 Q1257.9315,818.0936 1258.6502,819.0624 Q1259.369,820.0155 1260.9627,820.0155 Q1261.5565,820.0155 1262.1815,819.8593 Q1262.8065,819.703 1263.6346,819.328 L1263.6346,821.5468 Q1262.9002,821.8593 1262.1033,822.0155 Q1261.3221,822.1718 1260.5565,822.1718 Z " fill="#000000"/><text fill="#000000" font-family="sans-serif" font-size="14" lengthAdjust="spacing" textLength="123.3255" x="1281.5877" y="820.6819">BarycenterMapper</text><line style="stroke:#181818;stroke-width:0.5;" x1="1186.39" x2="1467.611" y1="831.2499" y2="831.2499"/><text fill="#000000" font-family="sans-serif" font-size="14" lengthAdjust="spacing" textLength="97.8176" x="1191.39" y="850.2158">-audio_params</text><line style="stroke:#181818;stroke-width:0.5;" x1="1186.39" x2="1467.611" y1="858.3178" y2="858.3178"/><text fill="#000000" font-family="sans-serif" font-size="14" lengthAdjust="spacing" textLength="271.221" x="1191.39" y="877.2838">+process_features(raw_landmarker_data)</text><text fill="#000000" font-family="sans-serif" font-size="14" lengthAdjust="spacing" textLength="257.487" x="1191.39" y="896.3517">-_compute_barycenter_1D(coordinates)</text></g><!--class PinchGestureMapper--><g id="elem_PinchGestureMapper"><rect codeLine="88" fill="#F1F1F1" height="86.1358" id="PinchGestureMapper" rx="2.5" ry="2.5" style="stroke:#181818;stroke-width:0.5;" width="283.221" x="1503.39" y="808.7799"/><ellipse cx="1570.8838" cy="824.7799" fill="#ADD1B2" rx="11" ry="11" style="stroke:#181818;stroke-width:1.0;"/><path d="M1570.3525,831.7018 Q1568.6025,831.7018 1567.4619,830.9674 Q1566.3369,830.2174 1565.7744,828.8736 Q1565.2275,827.5143 1565.2275,825.7174 Q1565.2275,823.6861 1565.8838,822.233 Q1566.54,820.7799 1567.8213,819.9986 Q1569.1025,819.2174 1570.9775,819.2174 Q1571.8681,819.2174 1572.54,819.4049 Q1573.2119,819.5768 1573.8994,819.9205 L1573.0869,821.9361 Q1572.4619,821.6236 1571.915,821.4986 Q1571.3838,821.3736 1570.8994,821.3736 Q1569.7275,821.3736 1569.0244,821.9049 Q1568.3213,822.4361 1568.0244,823.3893 Q1567.7275,824.3424 1567.7275,825.608 Q1567.7275,827.6236 1568.4463,828.5924 Q1569.165,829.5455 1570.7588,829.5455 Q1571.3525,829.5455 1571.9775,829.3893 Q1572.6025,829.233 1573.4306,828.858 L1573.4306,831.0768 Q1572.6963,831.3893 1571.8994,831.5455 Q1571.1181,831.7018 1570.3525,831.7018 Z " fill="#000000"/><text fill="#000000" font-family="sans-serif" font-size="14" lengthAdjust="spacing" textLength="139.7335" x="1591.3838" y="830.2119">PinchGestureMapper</text><line style="stroke:#181818;stroke-width:0.5;" x1="1504.39" x2="1785.611" y1="840.7799" y2="840.7799"/><text fill="#000000" font-family="sans-serif" font-size="14" lengthAdjust="spacing" textLength="97.8176" x="1509.39" y="859.7458">-audio_params</text><line style="stroke:#181818;stroke-width:0.5;" x1="1504.39" x2="1785.611" y1="867.8478" y2="867.8478"/><text fill="#000000" font-family="sans-serif" font-size="14" lengthAdjust="spacing" textLength="271.221" x="1509.39" y="886.8138">+process_features(raw_landmarker_data)</text></g><!--class PulseMapper--><g id="elem_PulseMapper"><rect codeLine="93" fill="#F1F1F1" height="124.2717" id="PulseMapper" rx="2.5" ry="2.5" style="stroke:#181818;stroke-width:0.5;" width="175.2954" x="1821.35" y="789.7099"/><ellipse cx="1861.7794" cy="805.7099" fill="#ADD1B2" rx="11" ry="11" style="stroke:#181818;stroke-width:1.0;"/><path d="M1861.2481,812.6318 Q1859.4981,812.6318 1858.3575,811.8974 Q1857.2325,811.1474 1856.67,809.8036 Q1856.1231,808.4443 1856.1231,806.6474 Q1856.1231,804.6161 1856.7794,803.163 Q1857.4356,801.7099 1858.7169,800.9286 Q1859.9981,800.1474 1861.8731,800.1474 Q1862.7637,800.1474 1863.4356,800.3349 Q1864.1075,800.5068 1864.795,800.8505 L1863.9825,802.8661 Q1863.3575,802.5536 1862.8106,802.4286 Q1862.2794,802.3036 1861.795,802.3036 Q1860.6231,802.3036 1859.92,802.8349 Q1859.2169,803.3661 1858.92,804.3193 Q1858.6231,805.2724 1858.6231,806.538 Q1858.6231,808.5536 1859.3419,809.5224 Q1860.0606,810.4755 1861.6544,810.4755 Q1862.2481,810.4755 1862.8731,810.3193 Q1863.4981,810.163 1864.3262,809.788 L1864.3262,812.0068 Q1863.5919,812.3193 1862.795,812.4755 Q1862.0137,812.6318 1861.2481,812.6318 Z " fill="#000000"/><text fill="#000000" font-family="sans-serif" font-size="14" lengthAdjust="spacing" textLength="86.7857" x="1881.4303" y="811.1419">PulseMapper</text><line style="stroke:#181818;stroke-width:0.5;" x1="1822.35" x2="1995.6454" y1="821.7099" y2="821.7099"/><text fill="#000000" font-family="sans-serif" font-size="14" lengthAdjust="spacing" textLength="47.2498" x="1827.35" y="840.6758">-thresh</text><text fill="#000000" font-family="sans-serif" font-size="14" lengthAdjust="spacing" textLength="68.5157" x="1827.35" y="859.7438">-cooldown</text><text fill="#000000" font-family="sans-serif" font-size="14" lengthAdjust="spacing" textLength="105.2936" x="1827.35" y="878.8117">-last_pulse_time</text><line style="stroke:#181818;stroke-width:0.5;" x1="1822.35" x2="1995.6454" y1="886.9136" y2="886.9136"/><text fill="#000000" font-family="sans-serif" font-size="14" lengthAdjust="spacing" textLength="163.2954" x="1827.35" y="905.8796">+process_features(value)</text></g><!--class Scenario--><g id="elem_Scenario"><rect codeLine="106" fill="#F1F1F1" height="162.4075" id="Scenario" rx="2.5" ry="2.5" style="stroke:#181818;stroke-width:0.5;" width="226.4091" x="977.8" y="151.4099"/><ellipse cx="1058.4187" cy="167.4099" fill="#ADD1B2" rx="11" ry="11" style="stroke:#181818;stroke-width:1.0;"/><path d="M1057.8874,174.3318 Q1056.1374,174.3318 1054.9968,173.5974 Q1053.8718,172.8474 1053.3093,171.5036 Q1052.7624,170.1443 1052.7624,168.3474 Q1052.7624,166.3161 1053.4187,164.863 Q1054.0749,163.4099 1055.3562,162.6286 Q1056.6374,161.8474 1058.5124,161.8474 Q1059.4031,161.8474 1060.0749,162.0349 Q1060.7468,162.2068 1061.4343,162.5505 L1060.6218,164.5661 Q1059.9968,164.2536 1059.4499,164.1286 Q1058.9187,164.0036 1058.4343,164.0036 Q1057.2624,164.0036 1056.5593,164.5349 Q1055.8562,165.0661 1055.5593,166.0193 Q1055.2624,166.9724 1055.2624,168.238 Q1055.2624,170.2536 1055.9812,171.2224 Q1056.6999,172.1755 1058.2937,172.1755 Q1058.8874,172.1755 1059.5124,172.0193 Q1060.1374,171.863 1060.9656,171.488 L1060.9656,173.7068 Q1060.2312,174.0193 1059.4343,174.1755 Q1058.6531,174.3318 1057.8874,174.3318 Z " fill="#000000"/><text fill="#000000" font-family="sans-serif" font-size="14" lengthAdjust="spacing" textLength="56.6718" x="1078.9187" y="172.8419">Scenario</text><line style="stroke:#181818;stroke-width:0.5;" x1="978.8" x2="1203.2091" y1="183.4099" y2="183.4099"/><text fill="#000000" font-family="sans-serif" font-size="14" lengthAdjust="spacing" textLength="81.0317" x="983.8" y="202.3758">-parameters</text><text fill="#000000" font-family="sans-serif" font-size="14" lengthAdjust="spacing" textLength="81.0037" x="983.8" y="221.4438">-video_input</text><text fill="#000000" font-family="sans-serif" font-size="14" lengthAdjust="spacing" textLength="118.6916" x="983.8" y="240.5117">-feature_extractor</text><text fill="#000000" font-family="sans-serif" font-size="14" lengthAdjust="spacing" textLength="110.5156" x="983.8" y="259.5796">-feature_mapper</text><text fill="#000000" font-family="sans-serif" font-size="14" lengthAdjust="spacing" textLength="113.9176" x="983.8" y="278.6475">-audio_generator</text><line style="stroke:#181818;stroke-width:0.5;" x1="978.8" x2="1203.2091" y1="286.7495" y2="286.7495"/><text fill="#000000" font-family="sans-serif" font-size="14" lengthAdjust="spacing" textLength="214.4091" x="983.8" y="305.7154">+_create_module(module_name)</text></g><!--class VideoInput--><g id="elem_VideoInput"><rect codeLine="117" fill="#F1F1F1" height="233.0233" id="VideoInput" rx="2.5" ry="2.5" style="stroke:#181818;stroke-width:0.5;" width="120.1776" x="2118.91" y="458.5499"/><ellipse cx="2140.8741" cy="481.2559" fill="#FFCC00" rx="11" ry="11" style="stroke:#181818;stroke-width:1.0;"/><path d="M2136.046,487.0059 L2139.3898,474.8184 L2142.5304,474.8184 L2145.9054,487.0059 L2143.4366,487.0059 L2142.7023,483.9903 L2139.1866,483.9903 L2138.4366,487.0059 L2136.046,487.0059 Z M2140.4523,478.959 L2139.7023,481.959 L2142.2179,481.959 L2141.4991,478.959 Q2141.3585,478.3809 2141.2335,477.834 Q2141.1085,477.2715 2140.9679,476.6934 Q2140.8585,477.2715 2140.7179,477.834 Q2140.5773,478.3809 2140.4523,478.959 Z " fill="#000000"/><text fill="#000000" font-family="sans-serif" font-size="12" font-style="italic" lengthAdjust="spacing" textLength="55.3924" x="2165.0764" y="476.378">&#171;abstract&#187;</text><text fill="#000000" font-family="sans-serif" font-size="14" lengthAdjust="spacing" textLength="72.7017" x="2156.4217" y="494.8599">VideoInput</text><line style="stroke:#181818;stroke-width:0.5;" x1="2119.91" x2="2238.0876" y1="503.9619" y2="503.9619"/><text fill="#000000" font-family="sans-serif" font-size="14" lengthAdjust="spacing" textLength="43.9458" x="2124.91" y="522.9279">-frame</text><text fill="#000000" font-family="sans-serif" font-size="14" lengthAdjust="spacing" textLength="76.1737" x="2124.91" y="541.9958">-stop_event</text><text fill="#000000" font-family="sans-serif" font-size="14" lengthAdjust="spacing" textLength="108.1776" x="2124.91" y="561.0637">-frame_available</text><line style="stroke:#181818;stroke-width:0.5;" x1="2119.91" x2="2238.0876" y1="569.1657" y2="569.1657"/><text fill="#000000" font-family="sans-serif" font-size="14" font-style="italic" lengthAdjust="spacing" textLength="75.2917" x="2124.91" y="588.1316">+configure()</text><text fill="#000000" font-family="sans-serif" font-size="14" font-style="italic" lengthAdjust="spacing" textLength="87.4857" x="2124.91" y="607.1995">+read_frame()</text><text fill="#000000" font-family="sans-serif" font-size="14" font-style="italic" lengthAdjust="spacing" textLength="65.3378" x="2124.91" y="626.2674">+cleanup()</text><text fill="#000000" font-family="sans-serif" font-size="14" lengthAdjust="spacing" textLength="39.4938" x="2124.91" y="645.3354">+run()</text><text fill="#000000" font-family="sans-serif" font-size="14" lengthAdjust="spacing" textLength="45.2478" x="2124.91" y="664.4033">+stop()</text><text fill="#000000" font-family="sans-serif" font-size="14" lengthAdjust="spacing" textLength="83.6217" x="2124.91" y="683.4712">+get_frame()</text></g><!--class Flircam--><g id="elem_Flircam"><rect codeLine="129" fill="#F1F1F1" height="200.5433" id="Flircam" rx="2.5" ry="2.5" style="stroke:#181818;stroke-width:0.5;" width="251.5111" x="2053.24" y="751.5799"/><ellipse cx="2150.7776" cy="767.5799" fill="#ADD1B2" rx="11" ry="11" style="stroke:#181818;stroke-width:1.0;"/><path d="M2150.2464,774.5018 Q2148.4964,774.5018 2147.3558,773.7674 Q2146.2308,773.0174 2145.6683,771.6736 Q2145.1214,770.3143 2145.1214,768.5174 Q2145.1214,766.4861 2145.7776,765.033 Q2146.4339,763.5799 2147.7151,762.7986 Q2148.9964,762.0174 2150.8714,762.0174 Q2151.762,762.0174 2152.4339,762.2049 Q2153.1058,762.3768 2153.7933,762.7205 L2152.9808,764.7361 Q2152.3558,764.4236 2151.8089,764.2986 Q2151.2776,764.1736 2150.7933,764.1736 Q2149.6214,764.1736 2148.9183,764.7049 Q2148.2151,765.2361 2147.9183,766.1893 Q2147.6214,767.1424 2147.6214,768.408 Q2147.6214,770.4236 2148.3401,771.3924 Q2149.0589,772.3455 2150.6526,772.3455 Q2151.2464,772.3455 2151.8714,772.1893 Q2152.4964,772.033 2153.3245,771.658 L2153.3245,773.8768 Q2152.5901,774.1893 2151.7933,774.3455 Q2151.012,774.5018 2150.2464,774.5018 Z " fill="#000000"/><text fill="#000000" font-family="sans-serif" font-size="14" lengthAdjust="spacing" textLength="47.9358" x="2171.2776" y="773.0119">Flircam</text><line style="stroke:#181818;stroke-width:0.5;" x1="2054.24" x2="2303.7511" y1="783.5799" y2="783.5799"/><text fill="#000000" font-family="sans-serif" font-size="14" lengthAdjust="spacing" textLength="51.0998" x="2059.24" y="802.5458">-system</text><text fill="#000000" font-family="sans-serif" font-size="14" lengthAdjust="spacing" textLength="32.1719" x="2059.24" y="821.6138">-cam</text><text fill="#000000" font-family="sans-serif" font-size="14" lengthAdjust="spacing" textLength="108.9196" x="2059.24" y="840.6817">-color_processor</text><line style="stroke:#181818;stroke-width:0.5;" x1="2054.24" x2="2303.7511" y1="848.7836" y2="848.7836"/><text fill="#000000" font-family="sans-serif" font-size="14" lengthAdjust="spacing" textLength="103.7256" x="2059.24" y="867.7496">+_find_camera()</text><text fill="#000000" font-family="sans-serif" font-size="14" lengthAdjust="spacing" textLength="239.5111" x="2059.24" y="886.8175">+_init_color_processor(interpolation)</text><text fill="#000000" font-family="sans-serif" font-size="14" lengthAdjust="spacing" textLength="79.6177" x="2059.24" y="905.8854">+configure()</text><text fill="#000000" font-family="sans-serif" font-size="14" lengthAdjust="spacing" textLength="92.2036" x="2059.24" y="924.9533">+read_frame()</text><text fill="#000000" font-family="sans-serif" font-size="14" lengthAdjust="spacing" textLength="68.4037" x="2059.24" y="944.0213">+cleanup()</text></g><!--class Webcam--><g id="elem_Webcam"><rect codeLine="140" fill="#F1F1F1" height="143.3396" id="Webcam" rx="2.5" ry="2.5" style="stroke:#181818;stroke-width:0.5;" width="104.2036" x="2339.9" y="780.1799"/><ellipse cx="2361.6562" cy="796.1799" fill="#ADD1B2" rx="11" ry="11" style="stroke:#181818;stroke-width:1.0;"/><path d="M2361.125,803.1018 Q2359.375,803.1018 2358.2344,802.3674 Q2357.1094,801.6174 2356.5469,800.2736 Q2356,798.9143 2356,797.1174 Q2356,795.0861 2356.6562,793.633 Q2357.3125,792.1799 2358.5937,791.3986 Q2359.875,790.6174 2361.75,790.6174 Q2362.6406,790.6174 2363.3125,790.8049 Q2363.9844,790.9768 2364.6719,791.3205 L2363.8594,793.3361 Q2363.2344,793.0236 2362.6875,792.8986 Q2362.1562,792.7736 2361.6719,792.7736 Q2360.5,792.7736 2359.7969,793.3049 Q2359.0937,793.8361 2358.7969,794.7893 Q2358.5,795.7424 2358.5,797.008 Q2358.5,799.0236 2359.2187,799.9924 Q2359.9375,800.9455 2361.5312,800.9455 Q2362.125,800.9455 2362.75,800.7893 Q2363.375,800.633 2364.2031,800.258 L2364.2031,802.4768 Q2363.4687,802.7893 2362.6719,802.9455 Q2361.8906,803.1018 2361.125,803.1018 Z " fill="#000000"/><text fill="#000000" font-family="sans-serif" font-size="14" lengthAdjust="spacing" textLength="57.1898" x="2377.1576" y="801.6119">Webcam</text><line style="stroke:#181818;stroke-width:0.5;" x1="2340.9" x2="2443.1036" y1="812.1799" y2="812.1799"/><text fill="#000000" font-family="sans-serif" font-size="14" lengthAdjust="spacing" textLength="74.5637" x="2345.9" y="831.1458">-cam_index</text><text fill="#000000" font-family="sans-serif" font-size="14" lengthAdjust="spacing" textLength="27.6919" x="2345.9" y="850.2138">-cap</text><line style="stroke:#181818;stroke-width:0.5;" x1="2340.9" x2="2443.1036" y1="858.3157" y2="858.3157"/><text fill="#000000" font-family="sans-serif" font-size="14" lengthAdjust="spacing" textLength="79.6177" x="2345.9" y="877.2817">+configure()</text><text fill="#000000" font-family="sans-serif" font-size="14" lengthAdjust="spacing" textLength="92.2036" x="2345.9" y="896.3496">+read_frame()</text><text fill="#000000" font-family="sans-serif" font-size="14" lengthAdjust="spacing" textLength="68.4037" x="2345.9" y="915.4175">+cleanup()</text></g><!--class py--><g id="elem_py"><rect codeLine="152" fill="#F1F1F1" height="67.0679" id="py" rx="2.5" ry="2.5" style="stroke:#181818;stroke-width:0.5;" width="143.4595" x="2189.27" y="199.0799"/><ellipse cx="2248.8748" cy="215.0799" fill="#ADD1B2" rx="11" ry="11" style="stroke:#181818;stroke-width:1.0;"/><path d="M2248.3435,222.0018 Q2246.5935,222.0018 2245.4529,221.2674 Q2244.3279,220.5174 2243.7654,219.1736 Q2243.2185,217.8143 2243.2185,216.0174 Q2243.2185,213.9861 2243.8748,212.533 Q2244.531,211.0799 2245.8123,210.2986 Q2247.0935,209.5174 2248.9685,209.5174 Q2249.8591,209.5174 2250.531,209.7049 Q2251.2029,209.8768 2251.8904,210.2205 L2251.0779,212.2361 Q2250.4529,211.9236 2249.906,211.7986 Q2249.3748,211.6736 2248.8904,211.6736 Q2247.7185,211.6736 2247.0154,212.2049 Q2246.3123,212.7361 2246.0154,213.6893 Q2245.7185,214.6424 2245.7185,215.908 Q2245.7185,217.9236 2246.4373,218.8924 Q2247.156,219.8455 2248.7498,219.8455 Q2249.3435,219.8455 2249.9685,219.6893 Q2250.5935,219.533 2251.4216,219.158 L2251.4216,221.3768 Q2250.6873,221.6893 2249.8904,221.8455 Q2249.1091,222.0018 2248.3435,222.0018 Z " fill="#000000"/><text fill="#000000" font-family="sans-serif" font-size="14" lengthAdjust="spacing" textLength="15.7499" x="2269.3748" y="220.5119">py</text><line style="stroke:#181818;stroke-width:0.5;" x1="2190.27" x2="2331.7295" y1="231.0799" y2="231.0799"/><line style="stroke:#181818;stroke-width:0.5;" x1="2190.27" x2="2331.7295" y1="239.0799" y2="239.0799"/><text fill="#000000" font-family="sans-serif" font-size="14" lengthAdjust="spacing" textLength="131.4595" x="2195.27" y="258.0458">+main(scenario_file)</text></g><!--reverse link AudioGenerator to OSCGenerator--><g id="link_AudioGenerator_OSCGenerator"><path codeLine="32" d="M177.79,575.0699 C127.42,575.0699 86,575.0699 86,575.0699 C86,575.0699 86,718.4399 86,798.8099 " fill="none" id="AudioGenerator-backto-OSCGenerator" style="stroke:#181818;stroke-width:1.0;"/><polygon fill="none" points="195.79,575.0699,177.79,569.0699,177.79,581.0699,195.79,575.0699" style="stroke:#181818;stroke-width:1.0;"/></g><!--reverse link AudioGenerator to SinewaveGenerator--><g id="link_AudioGenerator_SinewaveGenerator"><path codeLine="33" d="M265,690.6499 C265,733.1399 265,763.2599 265,798.9399 " fill="none" id="AudioGenerator-backto-SinewaveGenerator" style="stroke:#181818;stroke-width:1.0;"/><polygon fill="none" points="265,672.6499,259,690.6499,271,690.6499,265,672.6499" style="stroke:#181818;stroke-width:1.0;"/></g><!--reverse link FeatureExtractor to FrameDiffCalculator--><g id="link_FeatureExtractor_FrameDiffCalculator"><path codeLine="73" d="M891.78,575.0699 C781.51,575.0699 600,575.0699 600,575.0699 C600,575.0699 600,718.4399 600,798.8099 " fill="none" id="FeatureExtractor-backto-FrameDiffCalculator" style="stroke:#181818;stroke-width:1.0;"/><polygon fill="none" points="909.78,575.0699,891.78,569.0699,891.78,581.0699,909.78,575.0699" style="stroke:#181818;stroke-width:1.0;"/></g><!--reverse link FeatureExtractor to HandLandmarker--><g id="link_FeatureExtractor_HandLandmarker"><path codeLine="74" d="M981,633.6099 C981,676.6299 981,727.4699 981,779.7699 " fill="none" id="FeatureExtractor-backto-HandLandmarker" style="stroke:#181818;stroke-width:1.0;"/><polygon fill="none" points="981,615.6099,975,633.6099,987,633.6099,981,615.6099" style="stroke:#181818;stroke-width:1.0;"/></g><!--reverse link Mapper to BarycenterMapper--><g id="link_Mapper_BarycenterMapper"><path codeLine="100" d="M1431.77,633.6099 C1431.77,682.1099 1431.77,745.4299 1431.77,798.8699 " fill="none" id="Mapper-backto-BarycenterMapper" style="stroke:#181818;stroke-width:1.0;"/><polygon fill="none" points="1431.77,615.6099,1425.77,633.6099,1437.77,633.6099,1431.77,615.6099" style="stroke:#181818;stroke-width:1.0;"/></g><!--reverse link Mapper to PinchGestureMapper--><g id="link_Mapper_PinchGestureMapper"><path codeLine="101" d="M1527.95,633.6099 C1527.95,685.1099 1527.95,755.6299 1527.95,808.4599 " fill="none" id="Mapper-backto-PinchGestureMapper" style="stroke:#181818;stroke-width:1.0;"/><polygon fill="none" points="1527.95,615.6099,1521.95,633.6099,1533.95,633.6099,1527.95,615.6099" style="stroke:#181818;stroke-width:1.0;"/></g><!--reverse link Mapper to PulseMapper--><g id="link_Mapper_PulseMapper"><path codeLine="102" d="M1552.51,633.5599 C1552.51,696.9599 1552.51,794.4799 1552.51,794.4799 C1552.51,794.4799 1715.31,794.4799 1820.88,794.4799 " fill="none" id="Mapper-backto-PulseMapper" style="stroke:#181818;stroke-width:1.0;"/><polygon fill="none" points="1552.51,615.5599,1546.51,633.5599,1558.51,633.5599,1552.51,615.5599" style="stroke:#181818;stroke-width:1.0;"/></g><!--reverse link VideoInput to Flircam--><g id="link_VideoInput_Flircam"><path codeLine="148" d="M2179,710.0399 C2179,729.8199 2179,732.1799 2179,751.4799 " fill="none" id="VideoInput-backto-Flircam" style="stroke:#181818;stroke-width:1.0;"/><polygon fill="none" points="2179,692.0399,2173,710.0399,2185,710.0399,2179,692.0399" style="stroke:#181818;stroke-width:1.0;"/></g><!--reverse link VideoInput to Webcam--><g id="link_VideoInput_Webcam"><path codeLine="149" d="M2257.47,575.0699 C2320.44,575.0699 2392,575.0699 2392,575.0699 C2392,575.0699 2392,697.8399 2392,779.8499 " fill="none" id="VideoInput-backto-Webcam" style="stroke:#181818;stroke-width:1.0;"/><polygon fill="none" points="2239.47,575.0699,2257.47,581.0699,2257.47,569.0699,2239.47,575.0699" style="stroke:#181818;stroke-width:1.0;"/></g><!--reverse link Scenario to VideoInput--><g id="link_Scenario_VideoInput"><path codeLine="156" d="M1197.93,326.3099 C1197.93,394.3199 1197.93,468.0899 1197.93,468.0899 C1197.93,468.0899 1905.29,468.0899 2118.74,468.0899 " fill="none" id="Scenario-backto-VideoInput" style="stroke:#181818;stroke-width:1.0;"/><polygon fill="#181818" points="1197.93,314.3099,1193.93,320.3099,1197.93,326.3099,1201.93,320.3099,1197.93,314.3099" style="stroke:#181818;stroke-width:1.0;"/><text fill="#000000" font-family="sans-serif" font-size="13" lengthAdjust="spacing" textLength="7.436" x="1207.0927" y="335.7055">1</text><text fill="#000000" font-family="sans-serif" font-size="13" lengthAdjust="spacing" textLength="7.436" x="2103.5988" y="450.2373">1</text></g><!--reverse link Scenario to FeatureExtractor--><g id="link_Scenario_FeatureExtractor"><path codeLine="157" d="M1027.37,326.1999 C1027.37,395.6399 1027.37,480.4699 1027.37,534.4999 " fill="none" id="Scenario-backto-FeatureExtractor" style="stroke:#181818;stroke-width:1.0;"/><polygon fill="#181818" points="1027.37,314.1999,1023.37,320.1999,1027.37,326.1999,1031.37,320.1999,1027.37,314.1999" style="stroke:#181818;stroke-width:1.0;"/><text fill="#000000" font-family="sans-serif" font-size="13" lengthAdjust="spacing" textLength="7.436" x="1014.8285" y="335.5864">1</text><text fill="#000000" font-family="sans-serif" font-size="13" lengthAdjust="spacing" textLength="7.436" x="1027.7753" y="523.0237">1</text></g><!--reverse link Scenario to Mapper--><g id="link_Scenario_Mapper"><path codeLine="158" d="M1191.66,326.1999 C1191.66,427.4899 1191.66,575.0699 1191.66,575.0699 C1191.66,575.0699 1308.08,575.0699 1394.48,575.0699 " fill="none" id="Scenario-backto-Mapper" style="stroke:#181818;stroke-width:1.0;"/><polygon fill="#181818" points="1191.66,314.1999,1187.66,320.1999,1191.66,326.1999,1195.66,320.1999,1191.66,314.1999" style="stroke:#181818;stroke-width:1.0;"/><text fill="#000000" font-family="sans-serif" font-size="13" lengthAdjust="spacing" textLength="7.436" x="1192.7237" y="335.5864">1</text><text fill="#000000" font-family="sans-serif" font-size="13" lengthAdjust="spacing" textLength="7.436" x="1379.6292" y="571.2922">1</text></g><!--reverse link Scenario to AudioGenerator--><g id="link_Scenario_AudioGenerator"><path codeLine="159" d="M1002.58,325.9599 C1002.58,406.6199 1002.58,506.2199 1002.58,506.2199 C1002.58,506.2199 518,506.2199 334.39,506.2199 " fill="none" id="Scenario-backto-AudioGenerator" style="stroke:#181818;stroke-width:1.0;"/><polygon fill="#181818" points="1002.58,313.9599,998.58,319.9599,1002.58,325.9599,1006.58,319.9599,1002.58,313.9599" style="stroke:#181818;stroke-width:1.0;"/><text fill="#000000" font-family="sans-serif" font-size="13" lengthAdjust="spacing" textLength="7.436" x="987.699" y="335.6084">1</text><text fill="#000000" font-family="sans-serif" font-size="13" lengthAdjust="spacing" textLength="7.436" x="341.9289" y="495.1772">1</text></g><!--SRC=[hLPBRnCn4Bxlhx329IKDQkyLKabfgGG2AH8SBMTtabZrsfOVIKFfVsUy3w_tKL41XoZsZ3tppJSFh-DE0Ba3wxo15TDaxOpFmoRBx0ENcXbM4i4bk9C6eepRgonLvO9PU-sSuHllu3vNSir_0hd8Cito1xO3CcE-u6f6dZ9IdoRNGN074Wnpof2hApA_FYTlRczNgukBCy8srXcME_B-VNM9a2MX1NECEaKjoA8d4of_g0GBCZgp84-jiMVq3KnwFJyRgvHtsZjQ0OrwusLSMwVgYyzPZEBhUjN5qEBC1GVfcbkJPbCOYRKrKdna1nYQV8MLiD_Lru3QnavdVyZsh-MoX_s58oD0sNEIqu9RBTWfpUfDBUfIjiNwW9ONLMebaHhR20AZ50ujMKiIyxWaHrwuVRFU0z_jspELHPeh7szjTMiGCJYAM-errW4ql7GO5eGL1Oquvd7rXtodKM-1XTQWy5WLZZ9f_BUrycEhUqLTzufG6vM3jVCAyg0wReFiXc-tAoPoBtebfmqSkFAMfh6snd9l3CP8ez4gCo5sx5QApciDBT3sl6_fd8mk9uW-CLbynb_9p0DqO4fDzoYrtROmxCZbhardL7OOUOdajio7urGqXXlTUNMjaqOeOyf3vKwGzUBPVXYJoIwPrj3Bz9TAyfVvfOrTJ7Ip633xWPbJZhI3QVoqt5OJW5PZTq1XPpDb3qmr8KTPtqG7zF86-q2PWajicI6GRrpc- -Pf-7zGKWTUsA5bjyUx-pWrb2ZKKQOjhiCbwlYmr3l71oPyLwvjiaAsXzGErEE0XmSwmBrIyOuBcrR86hqmmrNNf84gGCTjPnnu0OhYA-hZA1iEbu6yR15r2TWbCpnGGNC3uH4eLU45pEi_AcFtffWh02dcxq5m7m2zwaLEf_jecDT3XHqO5smZOE8nLdBBTnZMr7ECGHJrq9dI3f- -oRbTluakiP9EKy5DZjykRIZsP1sKRSsnk5926TgKLyVnbkCimbF8V7I5YUIE3YxCUQWqhN02SINZopsAV2BS5puIVi0cnOrhT5p0OzphVtAILa0rI6kU9ZGra51FDR1PoRXyfvllWGK9sxbjcW0P4rY0U3YsnUnoHjwYdV3VsPxM3mVtzAccAoTr_S-RBFiD]--></g></svg>